<?xml version="1.0" encoding="UTF-8"?>
<!DOCTYPE svg PUBLIC "-//W3C//DTD SVG 1.1//EN" "http://www.w3.org/Graphics/SVG/1.1/DTD/svg11.dtd">
<svg xmlns="http://www.w3.org/2000/svg" version="1.1" width="243px" height="243px" style="shape-rendering:geometricPrecision; text-rendering:geometricPrecision; image-rendering:optimizeQuality; fill-rule:evenodd; clip-rule:evenodd" xmlns:xlink="http://www.w3.org/1999/xlink">
<g><path style="opacity:1" fill="#020202" d="M 118.5,49.5 C 123.814,48.7397 127.647,50.7397 130,55.5C 130.032,91.8721 130.699,128.205 132,164.5C 160.077,143.212 188.244,122.045 216.5,101C 224.683,98.0934 229.683,100.927 231.5,109.5C 230.161,113.348 227.828,116.514 224.5,119C 191.988,143.09 159.654,167.424 127.5,192C 119.822,195.577 114.655,193.41 112,185.5C 112.455,149.506 112.455,113.506 112,77.5C 83.7688,99.3646 55.2688,120.865 26.5,142C 18.6321,144.898 13.6321,142.231 11.5,134C 12.5976,129.806 14.9309,126.473 18.5,124C 52.0166,99.3033 85.35,74.47 118.5,49.5 Z"/></g>
</svg>
